<svg width="120" height="19" viewBox="0 0 94 19" fill="none" xmlns="http://www.w3.org/2000/svg">
<g clip-path="url(#clip0_1_2)">
<g clip-path="url(#clip1_1_2)">
<g clip-path="url(#clip2_1_2)">
<g clip-path="url(#clip3_1_2)">
<g clip-path="url(#clip4_1_2)">
<g clip-path="url(#clip5_1_2)">
<path d="M9.47454 12.6078H11.771C11.6726 14.5461 11.1277 16.0296 10.1365 17.0582C9.14865 18.0868 7.75005 18.6011 5.94069 18.6011C4.12794 18.6011 2.68691 17.9102 1.61759 16.5286C0.54827 15.1504 0.0136108 13.2799 0.0136108 10.9172V7.63799C0.0136108 5.2821 0.561849 3.42012 1.65833 2.05208C2.7582 0.684026 4.25694 0 6.15456 0C7.90281 0 9.25558 0.524476 10.2129 1.57343C11.1702 2.62238 11.6896 4.12112 11.771 6.06966H9.47454C9.3727 4.59298 9.06208 3.54063 8.5427 2.91262C8.01992 2.28121 7.22388 1.96551 6.15456 1.96551C4.9189 1.96551 3.97009 2.44925 3.30813 3.41673C2.64278 4.38081 2.3101 5.79469 2.3101 7.65836V10.9783C2.3101 12.8115 2.61901 14.2169 3.23684 15.1945C3.85467 16.1722 4.75596 16.661 5.94069 16.661C7.12543 16.661 7.97919 16.3674 8.50197 15.7801C9.02474 15.1894 9.34893 14.132 9.47454 12.6078ZM26.6295 7.59726V10.8918C26.6295 13.3631 26.1016 15.2658 25.0459 16.5999C23.9935 17.934 22.4982 18.6011 20.5598 18.6011C18.6961 18.6011 17.2229 17.9527 16.14 16.6559C15.0605 15.3592 14.4986 13.5243 14.4545 11.1515V7.74492C14.4545 5.32792 14.9892 3.4337 16.0585 2.06226C17.1278 0.68742 18.6198 0 20.5343 0C22.4422 0 23.9273 0.656869 24.9898 1.9706C26.0558 3.28434 26.6023 5.15989 26.6295 7.59726ZM24.3533 11.1158V7.72456C24.3533 5.80997 24.0393 4.38591 23.4113 3.45237C22.7867 2.51884 21.8277 2.05208 20.5343 2.05208C19.2851 2.05208 18.338 2.52563 17.693 3.47274C17.0514 4.41646 16.7272 5.80827 16.7204 7.64818V10.8918C16.7204 12.7419 17.0412 14.1507 17.6828 15.1181C18.3244 16.089 19.2834 16.5744 20.5598 16.5744C21.8362 16.5744 22.7816 16.1263 23.3961 15.2302C24.0071 14.3374 24.3262 12.9659 24.3533 11.1158ZM38.6466 0.249509H40.9329V13.117C40.9159 14.8347 40.4186 16.1773 39.4409 17.1447C38.4633 18.1156 37.1003 18.6011 35.3521 18.6011C33.5631 18.6011 32.195 18.1258 31.2479 17.1753C30.3042 16.2282 29.8238 14.8754 29.8069 13.117V0.249509H32.0728V13.0304C32.0728 14.2491 32.3308 15.1589 32.8468 15.7597C33.3662 16.3606 34.2013 16.661 35.3521 16.661C36.513 16.661 37.3532 16.3606 37.8726 15.7597C38.3886 15.1589 38.6466 14.2491 38.6466 13.0304V0.249509ZM53.1282 18.3516L49.9101 11.0293H46.7276V18.3516H44.4413V0.249509H49.5129C51.2849 0.249509 52.6275 0.71288 53.5407 1.63962C54.4504 2.56297 54.9053 3.91574 54.9053 5.69794C54.9053 6.81479 54.6592 7.79075 54.167 8.62584C53.6747 9.45753 52.9771 10.0838 52.0742 10.5048L55.5775 18.2039V18.3516H53.1282ZM46.7276 2.21502V9.07903H49.4874C50.4413 9.07903 51.2017 8.77181 51.7686 8.15738C52.3356 7.54294 52.619 6.72313 52.619 5.69794C52.619 3.37599 51.5667 2.21502 49.462 2.21502H46.7276ZM65.8582 13.7789C65.8582 12.8726 65.6138 12.1801 65.1249 11.7014C64.6361 11.2194 63.7535 10.7509 62.4771 10.296C61.2007 9.84113 60.2247 9.36248 59.5492 8.86007C58.8737 8.35766 58.3679 7.78566 58.0318 7.14407C57.6957 6.50248 57.5277 5.76753 57.5277 4.93924C57.5277 3.50329 58.0063 2.32195 58.9636 1.39521C59.9209 0.46507 61.1753 0 62.7266 0C63.7858 0 64.7295 0.239324 65.5578 0.717971C66.3861 1.19322 67.0243 1.85349 67.4724 2.69876C67.9204 3.54403 68.1445 4.47247 68.1445 5.48408H65.8582C65.8582 4.36723 65.5883 3.5016 65.0486 2.88716C64.5088 2.27273 63.7348 1.96551 62.7266 1.96551C61.8067 1.96551 61.0938 2.22351 60.588 2.73949C60.0822 3.25209 59.8293 3.97176 59.8293 4.8985C59.8293 5.6623 60.1025 6.3005 60.6491 6.81309C61.1956 7.32908 62.0409 7.78906 63.1849 8.19302C64.9671 8.78369 66.2418 9.51015 67.009 10.3724C67.7762 11.2346 68.1598 12.3617 68.1598 13.7535C68.1598 15.22 67.6828 16.3945 66.7289 17.2771C65.775 18.1598 64.4783 18.6011 62.8386 18.6011C61.7863 18.6011 60.8137 18.3702 59.9209 17.9085C59.0315 17.4503 58.3305 16.8036 57.8179 15.9685C57.3087 15.1368 57.0541 14.1829 57.0541 13.1068H59.3455C59.3455 14.2236 59.6578 15.0927 60.2825 15.7139C60.9071 16.3385 61.7591 16.6508 62.8386 16.6508C63.8401 16.6508 64.5937 16.3928 65.0995 15.8768C65.6053 15.3642 65.8582 14.6649 65.8582 13.7789ZM79.8153 8.03517V9.9854H73.4147V16.4013H80.8745V18.3516H71.1386V0.249509H80.7472V2.21502H73.4147V8.03517H79.8153ZM91.6899 13.7789C91.6899 12.8726 91.4455 12.1801 90.9566 11.7014C90.4678 11.2194 89.5852 10.7509 88.3088 10.296C87.0324 9.84113 86.0564 9.36248 85.3809 8.86007C84.7054 8.35766 84.1996 7.78566 83.8635 7.14407C83.5274 6.50248 83.3594 5.76753 83.3594 4.93924C83.3594 3.50329 83.838 2.32195 84.7953 1.39521C85.7526 0.46507 87.0052 0 88.5532 0C89.6157 0 90.5612 0.239324 91.3894 0.717971C92.2177 1.19322 92.8559 1.85349 93.304 2.69876C93.7521 3.54403 93.9762 4.47247 93.9762 5.48408H91.6899C91.6899 4.36723 91.42 3.5016 90.8802 2.88716C90.3405 2.27273 89.5648 1.96551 88.5532 1.96551C87.6333 1.96551 86.9204 2.22351 86.4146 2.73949C85.9122 3.25209 85.661 3.97176 85.661 4.8985C85.661 5.6623 85.9342 6.3005 86.4808 6.81309C87.0273 7.32908 87.8726 7.78906 89.0166 8.19302C90.7988 8.78369 92.0718 9.51015 92.8356 10.3724C93.6028 11.2346 93.9864 12.3617 93.9864 13.7535C93.9864 15.22 93.5111 16.3945 92.5606 17.2771C91.6067 18.1598 90.3083 18.6011 88.6652 18.6011C87.6129 18.6011 86.642 18.3702 85.7526 17.9085C84.8598 17.4503 84.1588 16.8036 83.6496 15.9685C83.1404 15.1368 82.8858 14.1829 82.8858 13.1068H85.1721C85.1721 14.2236 85.4861 15.0927 86.1141 15.7139C86.7388 16.3385 87.5891 16.6508 88.6652 16.6508C89.6701 16.6508 90.4254 16.3928 90.9312 15.8768C91.437 15.3642 91.6899 14.6649 91.6899 13.7789Z" fill="white"/>
</g>
</g>
</g>
</g>
</g>
</g>
<defs>
<clipPath id="clip0_1_2">
<rect width="94" height="18.6011" fill="white"/>
</clipPath>
<clipPath id="clip1_1_2">
<rect width="94" height="18.6011" fill="white"/>
</clipPath>
<clipPath id="clip2_1_2">
<rect width="94" height="18.6011" fill="white"/>
</clipPath>
<clipPath id="clip3_1_2">
<rect width="94" height="18.6011" fill="white"/>
</clipPath>
<clipPath id="clip4_1_2">
<rect width="94" height="18.6011" fill="white"/>
</clipPath>
<clipPath id="clip5_1_2">
<rect width="94" height="18.6011" fill="white"/>
</clipPath>
</defs>
</svg>
